<svg xmlns="http://www.w3.org/2000/svg" xmlns:xlink="http://www.w3.org/1999/xlink" preserveAspectRatio="xMidYMid" width="129.625" height="92.031" viewBox="0 0 129.625 92.031">
  <defs>
    <style>
      .cls-1 {
        fill: #fff;
        fill-rule: evenodd;
      }
    </style>
  </defs>
  <path d="M97.941,16.114 C92.529,16.114 89.097,19.546 89.097,24.034 C89.097,29.578 92.529,31.822 100.449,35.254 L105.069,37.235 C120.778,43.967 129.622,50.831 129.622,66.275 C129.622,82.908 116.554,92.016 98.997,92.016 C81.837,92.016 70.748,83.832 65.336,73.140 L80.385,64.427 C84.345,70.896 89.493,75.648 98.601,75.648 C106.257,75.648 111.141,71.820 111.141,66.539 C111.141,60.203 106.125,57.959 97.677,54.263 L93.057,52.283 C79.724,46.607 70.880,39.479 70.880,24.430 C70.880,10.570 81.441,0.009 97.941,0.009 C109.689,0.009 118.138,4.102 124.210,14.794 L109.821,24.034 C106.653,18.358 103.221,16.114 97.941,16.114 ZM27.719,92.016 C12.934,92.016 4.354,84.360 -0.002,75.120 L15.046,66.011 C17.950,71.160 20.590,75.516 26.927,75.516 C32.999,75.516 36.827,73.140 36.827,63.899 L36.827,1.066 L55.307,1.066 L55.307,64.163 C55.307,83.304 44.087,92.016 27.719,92.016 Z" class="cls-1"/>
</svg>
