<?xml version="1.0" encoding="utf-8"?>
<!-- Generator: Adobe Illustrator 19.1.0, SVG Export Plug-In . SVG Version: 6.00 Build 0)  -->
<svg version="1.1" id="Layer_1" xmlns="http://www.w3.org/2000/svg" xmlns:xlink="http://www.w3.org/1999/xlink" x="0px" y="0px"
	 viewBox="-9 4.5 80.2 93.5" style="enable-background:new -9 4.5 80.2 93.5;" xml:space="preserve">
<style type="text/css">
	.st0{fill:#F7F7F7;}
</style>
<g>
	<path class="st0" d="M21.5,74.9c-1-1.3-1.9-2.5-3-3.6c-1.3-1.2-2.5-2.2-3.4-3.8c-1.4-2.6-3.3-4.5-5.6-6.3c-2.2-1.8-4.4-4.4-5-7.2
		c-0.3-1.5-0.9-3.4-0.9-4.9c0-0.6,0-0.6,0.3-1c0.1-0.2,0.4-0.4,0.5-0.6c0.2-0.4,0-0.9,0.1-1.4c0.1-1.5,0.9-2.2,1.4-3.5
		c0.6-1.5,0.3-3.2,0.8-4.7c0.4-1.4,1.3-2.7,2-4c0.9-1.6,1.7-3.2,2.7-4.8c0.9-1.4,1.8-2.8,2.8-4.2c0.9-1.3,2.5-3,2.6-4.7
		c0.1-1.7-2.1-1.6-3.4-1.9c-1.8-0.4-2.9-1.1-4.1,0.6c-1.8,2.6-3.7,5.3-4.8,8.4c-0.3,0.9-1.2,2.6-0.9,3.5c0.2,0.7,1.2,1.1,1.6,1.6
		c0.4,0.6,0.6,1.2,0.7,1.9c0.2,1.2-0.2,2.1-1,3c-0.9,1.1-2.9,0.2-4.2,0c-1.2-0.2-2.3-0.4-2.6-1.7c-0.4-1.8,0.1-3.6,0.6-5.2
		c1-3.7,1.3-7.4,2.1-10.9c0.4-1.5,0.9-2.9,1.7-4.2c0.6-1,1.6-3.5,2.7-4s3.6-0.1,4.8-0.1c1.9,0,3.8,0,5.8,0.2c1.9,0.1,3.8,0,5.7,0.1
		c1.9,0.1,3.4,0.5,5.2,0.9c0.6,0.1,1.9,0.8,2.4,0.7c0.6-0.1,1.1-1.4,1.5-2c0.9-1.4,2-2.8,3.3-3.9c2.7-2.3,6.4-3.3,9.7-1.9
		c3.3,1.3,4.4,4.2,4.4,7.5c0,1.8-1.2,4-2.3,5.3c-1,1.2-2.5,1.3-3.6,2.4c1.5,1.2,4.6,3.2,6.2,1.4c2.1-2.2,3.4-5.8,4.3-8.6
		c0.9-2.9-2.5-3.7-2.1-6.7c0.2-1.2,1.1-2,2.4-1.9c1.1,0.1,3.9,0.7,4.6,1.6c0.7,0.8,0.3,3.4,0.1,4.4c-0.4,1.8-0.9,3.4-1.2,5.2
		c-0.5,3.1-1.1,5.7-2.4,8.6c-0.6,1.2-1.5,2.1-2.2,3.2c-0.3,0.5-0.1,0.8-0.7,1.1c-0.5,0.3-1.5-0.1-2-0.1c-3.2-0.3-7,0.2-10-0.9
		c-1.3-0.5-4.1-2.1-5.5-1.5c-1.1,0.4-1.5,2.7-2,3.6c-0.7,1.3-1.8,1.9-2.7,3.1c-1.1,1.5-1.4,3.6-2,5.3c2-0.2,4.1-0.4,6.1-0.8
		c1.9-0.4,3.9-1,5.8-0.7c2,0.3,2.8,1.6,4,3.1c1.3,1.7,2.9,3.1,4.4,4.6c2.8,2.8,5.3,6,8.4,8.5c1.5,1.1,3,1.9,4.8,2.5
		c2.1,0.7,2.9,0.4,5-0.3c1.8-0.6,2.7-1.5,4.1-2.7c0.3-0.2,1.2-1,1.6-0.5c0.3,0.4-0.5,3-0.7,3.5c-0.5,1.7-1.4,3.4-2.7,4.5
		c-1.5,1.3-3.6,1.9-5.2,3.1c-1.8,1.2-2.7,1.1-4.3-0.5c-1.1-1.1-1.6-2.7-2.9-3.6c-1.5-1.1-3.3-1.7-4.8-2.7c-1.6-1.1-3.1-2.3-4.9-3.2
		c-1.6-0.7-2.9-1.6-4.1-2.9c-0.6-0.6-1.3-1.3-1.8-2c-0.6-0.7-1-1.9-1.9-2.2c-1.1-0.4-3.8,1.3-4.7,1.9c-1.6,0.9-3.2,2.2-4.8,3.2
		c-0.6,0.5-1.8,1.3-2.1,2c-0.4,0.8,0.1,1.6,0.3,2.3c0.7,2.1,1.4,4.1,1.9,6.2c1,4.1,1.5,8.4,2.6,12.5c0.4,1.6,0.7,3.5,0.1,5.2
		c-0.8,2.1-3.1,2.6-5,3.2c-4.1,1.3-8.2,2.5-12.5,3.1c-3.6,0.5-7.8,1.2-11,3c-1.7,1-3.1,2.4-4.7,3.5s-2.8,2.3-3.8,4
		c-0.3,0.5-1,1.7-1.8,1.3c-0.5-0.2-0.6-1.8-0.6-2.2c-0.1-2.2,1-4.7,2.1-6.5c0.5-0.9,1-1.7,1.1-2.7c0.1-0.8-0.2-1.8,0.2-2.5
		c0.9-1.7,3.3-0.7,4.8-0.6C2.2,83.1,4,82.1,6,81c1.5-0.9,3.3-1.3,4.7-2.5c1.6-1.4,3.2-2.5,5.4-3.1C16.8,75,20.7,75.8,21.5,74.9
		C20.7,73.9,21.4,75,21.5,74.9z"/>
</g>
</svg>
